<?xml version="1.0" encoding="UTF-8" standalone="no"?>
<!-- Created with Inkscape (http://www.inkscape.org/) -->

<svg
   xmlns:dc="http://purl.org/dc/elements/1.1/"
   xmlns:cc="http://creativecommons.org/ns#"
   xmlns:rdf="http://www.w3.org/1999/02/22-rdf-syntax-ns#"
   xmlns:svg="http://www.w3.org/2000/svg"
   xmlns="http://www.w3.org/2000/svg"
   xmlns:sodipodi="http://sodipodi.sourceforge.net/DTD/sodipodi-0.dtd"
   xmlns:inkscape="http://www.inkscape.org/namespaces/inkscape"
   width="210mm"
   height="297mm"
   id="svg2"
   version="1.1"
   inkscape:version="0.48.4 r9939"
   sodipodi:docname="canard a air comprimé.svg">
  <defs
     id="defs4" />
  <sodipodi:namedview
     id="base"
     pagecolor="#ffffff"
     bordercolor="#666666"
     borderopacity="1.0"
     inkscape:pageopacity="0.0"
     inkscape:pageshadow="2"
     inkscape:zoom="0.7"
     inkscape:cx="174.71114"
     inkscape:cy="335.76125"
     inkscape:document-units="px"
     inkscape:current-layer="layer1"
     showgrid="false"
     inkscape:snap-center="false"
     inkscape:snap-smooth-nodes="false"
     inkscape:object-nodes="false"
     inkscape:window-width="1440"
     inkscape:window-height="844"
     inkscape:window-x="-4"
     inkscape:window-y="-4"
     inkscape:window-maximized="1"
     inkscape:object-paths="false" />
  <metadata
     id="metadata7">
    <rdf:RDF>
      <cc:Work
         rdf:about="">
        <dc:format>image/svg+xml</dc:format>
        <dc:type
           rdf:resource="http://purl.org/dc/dcmitype/StillImage" />
        <dc:title />
      </cc:Work>
    </rdf:RDF>
  </metadata>
  <g
     inkscape:label="Calque 1"
     inkscape:groupmode="layer"
     id="layer1">
    <path
       style="fill:none;stroke:#000000;stroke-opacity:1;stroke-width:10;stroke-miterlimit:4;stroke-dasharray:none"
       d="m 403.16878,211.84786 c -6.78283,0.12041 -13.18433,2.06224 -16.3125,6.125 -4.1895,5.44119 -8.32334,12.49933 -12.1875,20.25 -1.93487,-0.17024 -3.98396,-0.23492 -6.125,-0.21875 -67.46881,0.5095 -56.25508,57.82876 -80.21875,118.625 -13.90518,39.80885 -20.10714,51.36085 -43.32143,95.73214 -3.12358,5.97036 -25.40309,43.04792 -32.95982,55.70536 -26.28552,-15.44061 -68.04544,-42.69287 -88.8125,-70.875 -27.73809,-37.64224 -56.13362,11.47301 -50.5,30.28125 18.1508,60.59783 64.00119,131.043 83.65625,159.59375 -6.39717,22.51076 -10.46629,45.3447 -10.6875,66.71875 -0.53938,52.11794 29.00482,92.34477 73.8125,120.84375 5.09166,37.53203 23.65214,78.6759 49.9375,79.375 20.30356,0.54 39.09697,-16.67376 53.0625,-38.5625 12.90858,2.92393 26.10719,5.27539 39.40625,7.0625 50.69195,6.81193 99.11874,0.34226 138.53124,-18.3125 l 66.625,22.59375 c 7.7013,8.61275 16.2408,13.92897 25.1562,13.625 23.5603,-0.80327 39.1894,-54.97013 40.0626,-95.75 0.2547,-11.90058 0.6587,-22.80812 -5.875,-26.75 -7.1996,-4.34353 -12.5899,18.70411 -15.1563,17.3125 -9.4418,-5.11989 -14.5854,-24.21008 -23.8437,-30.8125 4.4532,-15.49214 6.8437,-32.3673 6.8437,-50.625 0,-45.46675 -18.9274,-89.21332 -46.7812,-127.0625 22.8551,-15.50884 46.397,-35.46578 52.5937,-55.0625 11.9725,-37.86211 -11.9311,-52.03933 -25.9375,-43.1875 -19.4586,12.2975 -62.0256,23.79796 -92.25,30.90625 -9.3569,-7.40704 -18.8691,-14.20409 -28.3437,-20.3125 -20.1767,-13.00815 -71.88045,-58.52855 -87.68308,-83.89286 -12.69732,-20.38007 13.11497,-36.99836 32.05804,-61.85714 8.10654,1.37025 16.27493,1.13166 21.28125,-4.21875 7.87982,-10.79515 -4.54599,-22.08197 -3.625,-28.875 0.41774,-3.20836 12.74686,-51.54803 11.6875,-75.15625 -0.38309,-8.53727 -12.78904,-13.41944 -24.09375,-13.21875 z m 137.75004,605.96875 c 3.021,8.90429 6.7015,17.76908 10.9062,25.9375 l -2.8437,-0.96875 c 0,0 -4.6726,-15.63419 -11.75,-21.8125 1.2487,-1.03082 2.4726,-2.09055 3.6875,-3.15625 z"
       id="path3021-2"
       inkscape:connector-curvature="0"
       sodipodi:nodetypes="sscscscsscscscsccscsccscsscsscccssccccc" />
    <path
       style="fill:#808000;stroke:none;stroke-width:1px;stroke-linecap:butt;stroke-linejoin:miter;stroke-opacity:1"
       d="m 235.36554,521.02194 c 0,0 -80.51808,-40.94758 -112.12693,-83.84266 -27.738096,-37.64224 -56.141241,11.49634 -50.507627,30.30458 23.375915,78.04224 92.934037,172.73608 92.934037,172.73608 z"
       id="path3021"
       inkscape:connector-curvature="0"
       sodipodi:nodetypes="csscc" />
    <path
       style="fill:#808000;stroke:none;stroke-width:0.88833742999999998px;stroke-linecap:butt;stroke-linejoin:miter;stroke-opacity:1"
       d="m 448.3509,506.65598 c -0.20434,3.57021 50.19074,88.55025 50.19074,88.55025 0,0 88.59924,-42.62235 101.54195,-83.55272 11.97248,-37.86211 -11.94022,-52.04583 -25.94666,-43.194 -31.8583,20.13391 -125.78603,38.19647 -125.78603,38.19647 z"
       id="path3023"
       inkscape:connector-curvature="0"
       sodipodi:nodetypes="ccssc" />
    <path
       style="fill:#808000;fill-rule:evenodd;stroke:none"
       d="m 368.5625,238 c -67.46881,0.5095 -56.26343,57.84943 -80.2271,118.64567 -19.26232,49.80885 -34.0229,79.55893 -56.16576,117.85879 -5.7845,10.00528 -27.38998,45.34943 -33.13839,54.83483 -26.60928,43.90773 -52.73955,109.08094 -53.3125,164.44196 -1.01015,97.60561 103.44213,153.57057 216.20003,168.72286 122.7661,16.49718 232.36247,-44.85328 232.36247,-168.72286 0,-88.22106 -71.26883,-169.95541 -140.71429,-214.72768 -20.17671,-13.00815 -69.39711,-56.72425 -87.34259,-83.51713 -18.82593,-28.10739 45.45283,-57.52438 45.45283,-93.44284 0,-31.21883 -3.11513,-64.39566 -43.1147,-64.0936 z"
       id="path2985"
       inkscape:connector-curvature="0"
       sodipodi:nodetypes="scsssssssss" />
    <path
       style="fill:#686802;fill-opacity:1;stroke:none"
       d="m 392.85714,323.79075 -26.07142,46.07144 32.14285,-37.50001 z"
       id="path3039"
       inkscape:connector-curvature="0"
       sodipodi:nodetypes="cccc" />
    <path
       style="fill:#686802;fill-opacity:1;stroke:none"
       d="M 212.0625,508.0625 C 185.77698,492.62189 143.98581,465.36963 123.21875,437.1875 95.480663,399.54526 67.085133,448.69176 72.718753,467.5 90.85917,528.06315 136.70108,598.44871 156.375,627.03125 c -6.40193,22.52011 -10.43495,45.36681 -10.65625,66.75 -1.01015,97.60561 103.42961,153.56646 216.18751,168.71875 122.7661,16.49718 232.375,-44.84917 232.375,-168.71875 0,-45.46675 -18.95861,-89.18207 -46.8125,-127.03125 22.85658,-15.50928 46.39659,-35.4957 52.59375,-55.09375 -15.68222,15.32801 -62.6755,15.04051 -63.87187,57.82568 C 656.25396,789.54494 451.0948,836.41208 406.63412,834.9926 282.32853,831.02394 254.14867,781.29318 218.33788,731.78904 173.05755,669.19437 195.02194,642.3483 184.30142,615.35991 159.55453,553.06082 92.704198,483.35309 74.212062,453.04377 c -4.655535,-7.6306 20.970074,-33.25328 29.569288,-29.77146 14.95821,6.05657 20.19207,16.30402 40.01463,35.28392 29.3626,28.1144 63.95437,47.16258 68.2478,49.51038 89.8428,-159.66054 87.20374,-146.83367 0.0187,-0.004 z"
       id="path3021-4-3"
       inkscape:connector-curvature="0"
       sodipodi:nodetypes="csscssscccsssssscc" />
    <path
       style="fill:#afaf1a;fill-opacity:1;stroke:none"
       d="m 221.42857,491.29075 c 39.4946,-34.10484 62.75784,-103.58964 78.27557,-144.50979 11.4575,-30.02132 4.46847,-60.00653 24.93872,-84.77592 20.63118,-24.96412 71.32088,-20.1987 71.32088,-20.1987 l -14.17803,-3.72987 c 0,0 -30.99232,-1.20796 -44.28571,5.71428 -27.08973,14.10639 -35.71429,65 -35.71429,65 -9.41379,47.96908 -38.57563,119.99359 -80.35714,182.5 z"
       id="path4020"
       inkscape:connector-curvature="0"
       sodipodi:nodetypes="ccsccssc" />
    <path
       style="fill:#ffff00;stroke:none;stroke-width:1px;stroke-linecap:butt;stroke-linejoin:miter;stroke-opacity:1"
       d="m 403.1875,211.84375 c -6.78283,0.12041 -13.18433,2.06224 -16.3125,6.125 -18.84498,24.47526 -36.41471,81.83122 -34.57143,86.45536 4.21315,8.83716 22.26578,22.27789 32.57143,25.66964 10.98864,3.22937 26.5184,7.3632 34.34375,-1 7.87982,-10.79515 -4.55938,-22.0909 -3.63839,-28.88393 0.41774,-3.20836 12.76025,-51.5391 11.70089,-75.14732 -0.38309,-8.53727 -12.78904,-13.41944 -24.09375,-13.21875 z"
       id="path2993"
       inkscape:connector-curvature="0"
       sodipodi:nodetypes="ssccccss" />
    <path
       style="fill:#ffce00;stroke:none;stroke-width:1px;stroke-linecap:butt;stroke-linejoin:miter;stroke-opacity:1;fill-opacity:1"
       d="m 353.55339,302.32392 c 7.7119,-25.76343 18.76078,-50.36341 30.2792,-73.27196 9.62275,-19.13833 41.40385,-14.33625 41.67623,-0.8517 0.48547,24.03445 -4.81899,48.0689 -8.8209,72.10335 l 1.24676,16.05982 c 1.05436,13.58151 -20.04196,10.87381 -30.45857,8.10925 -21.38629,-5.67591 -33.39936,-16.63065 -33.92272,-22.14876 z"
       id="path3809"
       inkscape:connector-curvature="0"
       sodipodi:nodetypes="csscssc" />
    <path
       style="fill:#c65e56;stroke:none;stroke-width:1px;stroke-linecap:butt;stroke-linejoin:miter;stroke-opacity:1;fill-opacity:1"
       d="m 354.1241,303.4365 c -0.24518,-8.13345 16.0289,-37.87418 19.03009,-45.43764 13.60272,-34.28087 51.32333,-21.0531 48.87601,-10.57597 -4.00186,17.13222 -9.49128,50.47511 -7.0921,64.38544 1.24994,7.24702 -12.47178,9.74811 -19.78462,10.5252 -10.5993,1.30087 -39.89692,-10.57093 -41.02938,-18.89703 z"
       id="path2997"
       inkscape:connector-curvature="0"
       sodipodi:nodetypes="cssscc" />
    <path
       style="color:#000000;fill:#5a5a04;fill-opacity:1;fill-rule:nonzero;stroke:none;marker:none;visibility:visible;display:inline;overflow:visible;enable-background:accumulate"
       d="M 288.3125,356.65625 C 270.12161,402.89367 248.9509,445.843 231.80804,474.5 c -3.45619,5.77757 -12.19458,20.91295 -19.74554,33.5625 -26.28552,-15.44061 -68.07669,-42.69287 -88.84375,-70.875 -27.73809,-37.64224 -56.13362,11.50426 -50.5,30.3125 18.140417,60.56315 63.98233,130.94871 83.65625,159.53125 -6.40193,22.52011 -10.43495,45.36681 -10.65625,66.75 -1.01015,97.60561 103.4296,153.56646 216.1875,168.71875 122.7661,16.49718 232.375,-44.84917 232.375,-168.71875 0,-45.46675 -18.95861,-89.18207 -46.8125,-127.03125 22.85658,-15.50928 46.39659,-35.4957 52.59375,-55.09375 -15.68222,15.32801 -47.6755,22.89765 -63.87187,57.82568 C 689.11109,789.54494 456.80908,857.12637 412.3484,855.70689 288.04281,851.73823 222.72009,794.15032 186.90931,744.64618 141.62898,682.05151 167.87908,647.3483 157.15856,620.35991 132.41167,558.06082 69.355869,484.09636 74.212059,453.04377 c 2.615155,-16.72242 20.970074,-33.25328 29.569291,-29.77146 14.95821,6.05657 20.19207,16.30402 40.01463,35.28392 29.3626,28.1144 65.04275,48.00556 68.26652,49.50627 5.79455,-9.7912 26.78252,-43.05661 41.87961,-73.71583 18.97414,-38.53274 29.79634,-63.3732 34.37039,-77.69042 z"
       id="path3021-4"
       inkscape:connector-curvature="0"
       sodipodi:nodetypes="cscsscssscccsssssscsc" />
    <path
       style="fill:#ffff00;stroke:none;stroke-width:1.25037515000000000px;stroke-linecap:butt;stroke-linejoin:miter;stroke-opacity:1"
       d="m 456.99646,829.43075 133.7994,45.40434 16.72493,-12.01879 -58.53724,-20.03133 c 0,0 -6.35439,-21.42944 -15.53029,-24.0376 -15.4829,-4.40086 -22.30947,11.58646 -22.30947,11.58646 l -49.36877,-35.62404 z"
       id="path2999"
       inkscape:connector-curvature="0"
       sodipodi:nodetypes="ccccsccc" />
    <path
       style="fill:#ffff00;stroke:none;stroke-width:1.12009286999999990px;stroke-linecap:butt;stroke-linejoin:miter;stroke-opacity:1"
       d="m 269.47711,894.02118 c 40.46739,1.07629 74.79548,-68.4439 77.27438,-104.73045 0.34469,-4.97105 -1.79353,-9.49479 -5.25266,-13.46427 -5.76037,-6.61023 -24.46948,19.03089 -32.18972,15.98873 -10.36847,-4.08569 -13.2563,-36.32534 -25.73961,-35.9447 -17.379,0.52991 -23.92978,26.89681 -38.4747,33.0494 -3.28672,1.3903 -10.19039,-21.64569 -19.41084,-17.30625 -8.36787,3.93818 -7.84648,14.84445 -7.52018,26.73385 1.11815,40.74157 21.13952,94.87117 51.31333,95.67369 z"
       id="path3001"
       inkscape:connector-curvature="0"
       sodipodi:nodetypes="scsssssss" />
    <path
       style="fill:#afaf1a;stroke:none;stroke-width:1px;stroke-linecap:butt;stroke-linejoin:miter;stroke-opacity:1;fill-opacity:1"
       d="m 82.579971,434.40136 c 8.417936,-9.22473 16.835873,-13.08179 25.253809,-10.85914 31.87587,28.30298 53.80913,57.26881 104.04572,84.34774 -46.4053,-17.07508 -74.69334,-49.02584 -107.28824,-77.34788 -5.500282,-4.77925 -13.701177,-0.8327 -22.011289,3.85928 z"
       id="path4016"
       inkscape:connector-curvature="0"
       sodipodi:nodetypes="cccsc" />
    <path
       sodipodi:type="arc"
       style="fill:#000000;stroke:none"
       id="path3025"
       sodipodi:cx="342.94678"
       sodipodi:cy="278.08026"
       sodipodi:rx="10.606602"
       sodipodi:ry="8.586297"
       d="m 353.55338,278.08026 a 10.606602,8.586297 0 1 1 -21.2132,0 10.606602,8.586297 0 1 1 21.2132,0 z" />
    <path
       style="fill:#ffffa5;fill-opacity:1;stroke:none"
       d="m 458.06789,804.07361 52.48695,29.2722 c 0,0 15.18313,-13.18598 22.41577,-11.29558 9.21917,2.40962 15.66163,25.14477 15.66163,25.14477 l 35.73505,12.99724 23.1535,2.62407 -58.53724,-20.03133 c 0,0 -6.35439,-21.42945 -15.53029,-24.03761 -15.4829,-4.40086 -22.30947,11.58646 -22.30947,11.58646 l -49.36877,-35.62404 z"
       id="path2999-1"
       inkscape:connector-curvature="0"
       sodipodi:nodetypes="ccsccccsccc" />
    <path
       style="fill:#ffff00;stroke:none;stroke-width:0.99022317000000004px;stroke-linecap:butt;stroke-linejoin:miter;stroke-opacity:1"
       d="m 592.23496,880.4265 c -31.59768,1.07731 -58.40169,-68.50823 -60.33727,-104.82889 -0.26913,-4.97572 1.40043,-9.50371 4.10138,-13.47693 4.4978,-6.61643 19.10622,19.04879 25.13433,16.00376 8.09589,-4.08953 10.35076,-36.35948 20.09796,-35.97848 13.56985,0.5304 18.68481,26.92209 30.04176,33.08046 2.56633,1.39161 7.95684,-21.66604 15.15634,-17.32251 6.53378,3.94188 6.12667,14.85839 5.87189,26.75897 -0.87307,40.77987 -16.50612,94.96035 -40.06639,95.76362 z"
       id="path3001-7"
       inkscape:connector-curvature="0"
       sodipodi:nodetypes="scsssssss" />
    <path
       style="fill:#40391e;fill-opacity:1;stroke:none"
       d="m 419.57918,725.93361 c 0,0 13.19951,3.33357 17.99911,14.68616 4.42591,10.46873 3.32967,21.07513 -17.23673,23.17099 -18.80811,1.91668 -28.7686,-6.43404 -34.01397,-16.56176 -6.93093,-13.38215 9.23676,-22.00968 9.23676,-22.00968 0,0 -17.83937,10.84221 -11.74538,25.54966 4.91882,11.87127 21.84389,18.99894 38.80971,15.87892 23.09325,-4.24685 23.54574,-16.59453 18.05637,-27.02671 -5.9616,-11.32963 -21.10587,-13.68758 -21.10587,-13.68758 z"
       id="path3047"
       inkscape:connector-curvature="0"
       sodipodi:nodetypes="cssscsssc" />
    <path
       style="fill:#40391e;fill-opacity:1;stroke:none"
       d="m 410.96817,734.4467 c 0,0 -0.42189,8.60759 2.31596,10.50386 -4.64244,-4.23873 -12.75327,1.14116 -12.75327,1.14116 0,0 12.00171,-1.90941 12.12073,2.55241 -0.71421,3.01172 5.38701,8.83395 5.38701,8.83395 0,0 -3.68665,-6.93768 -2.02013,-8.83395 4.04726,-3.56946 12.12076,-1.57749 12.12076,-1.57749 0,0 -8.23338,-3.60446 -11.44738,-1.262 -4.1663,-3.681 -5.72368,-11.35794 -5.72368,-11.35794 z"
       id="path3817"
       inkscape:connector-curvature="0"
       sodipodi:nodetypes="ccccccccc" />
    <path
       style="fill:#afaf1a;stroke:none;stroke-width:1px;stroke-linecap:butt;stroke-linejoin:miter;stroke-opacity:1;fill-opacity:1"
       d="m 481.59023,499.30366 c 34.03371,-8.02967 67.15652,-16.59237 96.7221,-32.82995 6.82615,-3.74896 22.48431,2.46041 24.74874,22.22335 0,0 -12.45969,-19.2489 -19.69798,-16.16244 -48.22344,20.56284 -101.77286,26.76904 -101.77286,26.76904 z"
       id="path4018"
       inkscape:connector-curvature="0"
       sodipodi:nodetypes="cscsc" />
    <path
       style="fill:#ffce00;fill-opacity:1;stroke:none"
       d="m 456.98122,829.41036 110.03125,37.34375 c 7.71213,8.64009 16.28723,13.96077 25.21875,13.65625 23.56027,-0.80327 39.18943,-54.97013 40.0625,-95.75 0.25478,-11.90058 0.65878,-22.80812 -5.875,-26.75 0.95924,46.89525 -12.33572,114.90652 -36.84588,108.35943 -6.93682,-1.85295 -14.28562,-4.03857 -21.82699,-6.41099 -3.12908,-0.98437 -7.71988,-13.07232 -10.8996,-14.11059 -4.38249,-1.431 6.21509,14.34248 1.83123,13.04216 -41.08529,-12.18646 -95.5412,-35.44968 -101.69626,-29.38001 z m -238.84375,-31.0625 c 1.11815,40.74157 21.13869,94.85373 51.3125,95.65625 -22.47878,-17.08457 -38.94837,-44.82232 -51.3125,-95.65625 z"
       id="path2999-7"
       inkscape:connector-curvature="0"
       sodipodi:nodetypes="ccsscsssscccc" />
    <path
       style="fill:#afaf1a;fill-opacity:1;stroke:none"
       d="M 300.5116,470.07779 C 367.14604,433.11885 396.78915,443.9356 446.47962,481.02837 411.40419,459.58726 355.8138,448.0412 300.5116,470.07779 z"
       id="path4014"
       inkscape:connector-curvature="0"
       sodipodi:nodetypes="ccc" />
    <path
       style="fill:#810300;fill-opacity:1;stroke:none"
       d="m 360.877,302.07138 c 0,0 5.53026,-11.19237 12.37437,-10.85914 17.17503,0.83622 2.276,8.79126 10.6066,8.5863 6.30432,-0.15511 -7.19002,-7.43867 8.83883,-9.34391 5.81182,-0.69081 15.40483,11.86929 15.40483,11.86929 0,0 -17.56254,2.46684 -25.00128,2.02031 -15.01425,-0.90127 -22.22335,-2.27285 -22.22335,-2.27285 z"
       id="path4022"
       inkscape:connector-curvature="0"
       sodipodi:nodetypes="cssscsc" />
    <path
       style="fill:#afaf1a;stroke:none;stroke-width:1px;stroke-linecap:butt;stroke-linejoin:miter;stroke-opacity:1;fill-opacity:1"
       d="m 215.71429,523.79075 c 24.53229,17.87769 8.13342,38.77303 -22.85715,55.71429 13.09007,-12.07861 24.41013,-35.78925 22.85715,-55.71429 z"
       id="path3035"
       inkscape:connector-curvature="0"
       sodipodi:nodetypes="ccc" />
    <path
       style="fill:#afaf1a;stroke:none;stroke-width:1px;stroke-linecap:butt;stroke-linejoin:miter;stroke-opacity:1;fill-opacity:1"
       d="m 484.28571,510.93361 c 24.35699,7.862 50.20675,15.11405 48.57144,45.71429 -17.21432,-15.7182 -21.22964,-26.97614 -48.57144,-45.71429 z"
       id="path3037"
       inkscape:connector-curvature="0"
       sodipodi:nodetypes="ccc" />
    <path
       style="fill:#ffffa5;fill-opacity:1;stroke:none"
       d="m 280.90569,768.3069 c 7.42999,-0.80419 12.52159,16.02799 23.24444,24.27132 8.69783,6.68657 24.77923,-11.39607 32.91839,-10.91083 8.50304,0.50693 8.89282,19.18964 9.68297,7.62334 0.34469,-4.97105 -1.79353,-9.49479 -5.25266,-13.46427 -5.76037,-6.61023 -24.46947,19.03089 -32.18971,15.98873 -10.36847,-4.08569 -13.2563,-36.32534 -25.73961,-35.9447 -17.379,0.52991 -23.92978,26.89681 -38.4747,33.0494 -3.28672,1.3903 -10.19039,-21.64569 -19.41084,-17.30625 -8.36787,3.93818 -7.84648,14.84445 -7.52018,26.73385 0.32545,11.85839 -1.16899,-14.30396 7.7141,-19.62151 6.66516,-3.98986 13.58785,23.76564 28.43274,9.2097 12.29081,-12.05157 11.87417,-18.03545 26.59506,-19.62878 z"
       id="path3001-74"
       inkscape:connector-curvature="0"
       sodipodi:nodetypes="ssscsssssssss" />
    <path
       style="fill:#ffffa5;fill-opacity:1;stroke:none"
       d="m 584.02067,749.71222 c -9.07169,0.3093 -10.64261,23.06842 -17.48362,29.55016 -7.91491,7.49925 -20.67472,-10.37843 -26.84521,-9.43647 -7.0726,1.07968 -7.05721,19.60011 -7.79415,5.7717 -0.26913,-4.97572 1.40043,-9.50371 4.10138,-13.47693 4.4978,-6.61643 19.10622,19.04879 25.13433,16.00376 8.09589,-4.08953 10.35076,-36.35948 20.09796,-35.97848 13.56985,0.5304 18.68481,26.92209 30.04176,33.08046 2.56633,1.39161 7.95684,-21.66604 15.15634,-17.32251 6.53378,3.94188 6.12667,14.85839 5.87189,26.75897 -0.35312,16.49364 0.89268,-9.77481 -5.43787,-18.78392 -4.01152,-5.70887 -9.19204,22.1989 -15.72455,19.67141 -8.64691,-3.34555 -19.12543,-36.11066 -27.11826,-35.83815 z"
       id="path3001-7-0"
       inkscape:connector-curvature="0"
       sodipodi:nodetypes="ssscsssssssss" />
    <path
       style="fill:#808000;stroke:none;stroke-width:1px;stroke-linecap:butt;stroke-linejoin:miter;stroke-opacity:1;fill-opacity:1"
       d="m 469.21586,783.15653 c 5.65644,0.78382 3.86742,10.69248 0.38096,16.08215 -2.85306,4.41051 -8.11508,9.926 -9.52692,14.7114 -1.75923,5.96286 2.24447,11.183 2.37983,16.17027 0.13049,4.80795 -6.98766,11.40662 -9.39631,9.60472 -27.21376,-20.35848 -6.46347,-59.70386 16.16244,-56.56854 z"
       id="path3835"
       inkscape:connector-curvature="0"
       sodipodi:nodetypes="ssssss" />
    <path
       style="fill:#686802;fill-opacity:1;stroke:none"
       d="m 456.08388,803.86466 c 3.15966,-4.7567 16.9994,-10.01565 13.51294,-4.62598 -2.85306,4.41051 -8.11508,9.926 -9.52692,14.7114 -1.75923,5.96286 5.33693,12.99293 3.64252,17.6855 -9.21342,25.51608 -17.34144,1.60043 -19.49783,-0.49681 -4.6748,-4.54656 13.06946,3.1773 13.40712,-2.05146 0.42408,-6.5672 -6.54223,-17.68882 -1.53783,-25.22265 z"
       id="path3835-9"
       inkscape:connector-curvature="0"
       sodipodi:nodetypes="sssssss" />
    <path
       style="fill:#afaf1a;fill-opacity:1;stroke:none"
       d="m 469.59682,796.7133 c 3.10393,-8.62759 1.77689,-10.85386 -7.42199,-10.06898 15.43992,-3.43252 20.93302,3.62839 7.42199,10.06898 z"
       id="path3835-4"
       inkscape:connector-curvature="0"
       sodipodi:nodetypes="ccc" />
    <path
       sodipodi:type="arc"
       style="color:#000000;fill:#ffffff;fill-opacity:1;fill-rule:nonzero;stroke:none;stroke-width:10;marker:none;visibility:visible;display:inline;overflow:visible;enable-background:accumulate"
       id="path3883"
       sodipodi:cx="340.92648"
       sodipodi:cy="274.92352"
       sodipodi:rx="3.1567266"
       sodipodi:ry="1.3889598"
       d="m 344.08321,274.92352 a 3.1567266,1.3889598 0 1 1 -6.31345,0 3.1567266,1.3889598 0 1 1 6.31345,0 z"
       transform="translate(-1.1364216,-0.88388348)" />
  </g>
</svg>
